<svg xmlns="http://www.w3.org/2000/svg" version="1.1" xmlns:xlink="http://www.w3.org/1999/xlink" width="24" height="24"><svg xmlns="http://www.w3.org/2000/svg" width="24" height="24" viewBox="0 0 24 24" fill="none" stroke="#2547d0" stroke-width="2" stroke-linecap="round" stroke-linejoin="round" class="lucide lucide-scan-heart-icon lucide-scan-heart"><path d="M11.246 16.657a1 1 0 0 0 1.508 0l3.57-4.101A2.75 2.75 0 1 0 12 9.168a2.75 2.75 0 1 0-4.324 3.388z"></path><path d="M17 3h2a2 2 0 0 1 2 2v2"></path><path d="M21 17v2a2 2 0 0 1-2 2h-2"></path><path d="M3 7V5a2 2 0 0 1 2-2h2"></path><path d="M7 21H5a2 2 0 0 1-2-2v-2"></path></svg><style>@media (prefers-color-scheme: light) { :root { filter: none; } }
@media (prefers-color-scheme: dark) { :root { filter: none; } }
</style></svg>